<?xml version="1.0" encoding="UTF-8" standalone="no"?>
<!-- Created with Inkscape (http://www.inkscape.org/) -->

<svg
   width="156.207mm"
   height="118.449mm"
   viewBox="0 0 156.20699 118.449"
   version="1.1"
   id="svg5"
   inkscape:version="1.2 (dc2aedaf03, 2022-05-15)"
   sodipodi:docname="ads10-pv25-batt25.svg"
   inkscape:export-filename="ads10-pv25-batt25.png"
   inkscape:export-xdpi="96"
   inkscape:export-ydpi="96"
   xmlns:inkscape="http://www.inkscape.org/namespaces/inkscape"
   xmlns:sodipodi="http://sodipodi.sourceforge.net/DTD/sodipodi-0.dtd"
   xmlns="http://www.w3.org/2000/svg"
   xmlns:svg="http://www.w3.org/2000/svg">
  <sodipodi:namedview
     id="namedview7"
     pagecolor="#ffffff"
     bordercolor="#999999"
     borderopacity="1"
     inkscape:showpageshadow="0"
     inkscape:pageopacity="1"
     inkscape:pagecheckerboard="0"
     inkscape:deskcolor="#d1d1d1"
     inkscape:document-units="mm"
     showgrid="false"
     inkscape:zoom="1.3715585"
     inkscape:cx="106.44825"
     inkscape:cy="140.71584"
     inkscape:window-width="2560"
     inkscape:window-height="1369"
     inkscape:window-x="2552"
     inkscape:window-y="-8"
     inkscape:window-maximized="1"
     inkscape:current-layer="g4680" />
  <defs
     id="defs2">
    <inkscape:path-effect
       effect="bspline"
       id="path-effect2362"
       is_visible="true"
       lpeversion="1"
       weight="33.333333"
       steps="2"
       helper_size="0"
       apply_no_weight="true"
       apply_with_weight="true"
       only_selected="false" />
    <inkscape:path-effect
       effect="bspline"
       id="path-effect2176"
       is_visible="true"
       lpeversion="1"
       weight="33.333333"
       steps="2"
       helper_size="0"
       apply_no_weight="true"
       apply_with_weight="true"
       only_selected="false" />
    <inkscape:path-effect
       effect="bspline"
       id="path-effect2176-5"
       is_visible="true"
       lpeversion="1"
       weight="33.333333"
       steps="2"
       helper_size="0"
       apply_no_weight="true"
       apply_with_weight="true"
       only_selected="false" />
    <inkscape:path-effect
       effect="bspline"
       id="path-effect2176-0-2"
       is_visible="true"
       lpeversion="1"
       weight="33.333333"
       steps="2"
       helper_size="0"
       apply_no_weight="true"
       apply_with_weight="true"
       only_selected="false" />
    <inkscape:path-effect
       effect="bspline"
       id="path-effect2176-5-8"
       is_visible="true"
       lpeversion="1"
       weight="33.333333"
       steps="2"
       helper_size="0"
       apply_no_weight="true"
       apply_with_weight="true"
       only_selected="false" />
    <inkscape:path-effect
       effect="bspline"
       id="path-effect2176-7"
       is_visible="true"
       lpeversion="1"
       weight="33.333333"
       steps="2"
       helper_size="0"
       apply_no_weight="true"
       apply_with_weight="true"
       only_selected="false" />
    <inkscape:path-effect
       effect="bspline"
       id="path-effect2362-7"
       is_visible="true"
       lpeversion="1"
       weight="33.333333"
       steps="2"
       helper_size="0"
       apply_no_weight="true"
       apply_with_weight="true"
       only_selected="false" />
    <inkscape:path-effect
       effect="bspline"
       id="path-effect2362-9"
       is_visible="true"
       lpeversion="1"
       weight="33.333333"
       steps="2"
       helper_size="0"
       apply_no_weight="true"
       apply_with_weight="true"
       only_selected="false" />
    <inkscape:path-effect
       effect="bspline"
       id="path-effect2362-4"
       is_visible="true"
       lpeversion="1"
       weight="33.333333"
       steps="2"
       helper_size="0"
       apply_no_weight="true"
       apply_with_weight="true"
       only_selected="false" />
    <rect
       x="-1563.0021"
       y="523.94464"
       width="60.935219"
       height="20.826384"
       id="rect40843-7" />
    <rect
       x="-1563.0021"
       y="523.94464"
       width="60.935219"
       height="20.826384"
       id="rect40843-7-1" />
  </defs>
  <g
     inkscape:label="Layer 1"
     inkscape:groupmode="layer"
     id="layer1"
     transform="translate(-19.212606,-25.54103)">
    <text
       xml:space="preserve"
       style="font-style:normal;font-variant:normal;font-weight:normal;font-stretch:normal;font-size:9.87777px;font-family:'Times New Roman';-inkscape-font-specification:'Times New Roman, Normal';font-variant-ligatures:normal;font-variant-caps:normal;font-variant-numeric:normal;font-variant-east-asian:normal;opacity:0.79;fill:#000000;fill-opacity:1;fill-rule:evenodd;stroke:#000000;stroke-width:0.4;stroke-linecap:round;stroke-linejoin:round;stroke-dasharray:none;stroke-opacity:1"
       x="98.303513"
       y="94.874275"
       id="text4169"><tspan
         sodipodi:role="line"
         id="tspan4167"
         style="stroke-width:0.4"
         x="98.303513"
         y="94.874275"></tspan></text>
    <g
       id="g4680"
       transform="rotate(-90.231366,106.90767,92.567861)">
      <rect
         style="opacity:0.83;fill:#ffffff;fill-opacity:1;fill-rule:evenodd"
         id="rect5784"
         width="156.207"
         height="118.449"
         x="4.44034"
         y="-174.30742"
         transform="rotate(90.231366)" />
      <path
         d="m 86.002443,22.408999 c 0.36503,-1.550685 2.106702,-2.961862 3.657891,-2.963763 1.227199,-0.0015 2.598544,0.703149 3.39472,1.744349 0.608375,0.795601 0.744905,1.260267 0.797406,2.71405 0.06273,1.73658 0.06123,1.740757 -0.152057,0.418329 -0.394811,-2.448402 -1.351562,-3.174863 -4.094823,-3.109181 -1.911515,0.04576 -2.76122,0.606011 -3.386237,2.232691 -0.333925,0.869076 -0.444199,0.996347 -0.435325,0.502432 0.0066,-0.36381 0.104836,-1.056319 0.218425,-1.538907 z m 0.05419,22.028729 c 0.373367,-0.231387 4.442898,-0.241214 4.67339,-0.01133 0.312492,0.311733 2.083479,0.136588 2.65136,-0.262208 0.568761,-0.399411 0.587567,-0.386747 0.588526,0.396155 l 9.91e-4,0.808751 -3.691017,0.0045 c -3.236128,0.004 -3.724177,0.06162 -3.96013,0.467873 -0.243057,0.418488 -0.269945,0.420616 -0.277703,0.02198 -0.0043,-0.242756 -0.07646,-0.617577 -0.159391,-0.832939 -0.08296,-0.215362 -0.0046,-0.482145 0.173974,-0.592851 z m 0.132833,-19.217011 c 0.07663,0.190902 0.06751,0.419116 -0.02028,0.507145 -0.08779,0.08803 -0.150544,-0.06817 -0.139396,-0.347095 0.01232,-0.308242 0.07495,-0.371012 0.159654,-0.16005 z m 0.01182,1.407684 c 0.102354,-0.543598 0.231705,-0.608113 0.978263,-0.487902 1.055389,0.16994 1.38672,-0.01736 1.544701,-0.873277 0.06715,-0.363885 0.135814,0.231343 0.152541,1.32273 0.02239,1.464058 -0.04042,1.863024 -0.239836,1.521649 -0.193315,-0.330975 -0.605447,-0.46228 -1.447726,-0.461248 -0.647609,7.94e-4 -1.161368,-0.08788 -1.141682,-0.197039 0.01967,-0.109164 0.08881,-0.480375 0.153739,-0.824913 z m -0.01054,4.132032 c 0.166384,0.410887 3.594816,0.451584 4.340147,0.05152 0.453432,-0.243383 0.511545,-0.183433 0.512418,0.52854 0.0011,0.903752 0.06248,0.886058 -2.819567,0.812484 -1.640213,-0.04187 -1.911331,0.01681 -2.019296,0.437167 -0.06857,0.267043 -0.129854,-0.109775 -0.136136,-0.837372 -0.0059,-0.727599 0.04886,-1.17415 0.122434,-0.992339 z m 0.0068,5.556246 c 0.16513,0.407817 4.323255,0.466349 4.322758,0.06085 -1.78e-4,-0.145521 0.118736,-0.264729 0.264256,-0.264907 0.14552,-1.78e-4 0.265027,0.356863 0.265562,0.793425 l 9.73e-4,0.79375 -2.361849,0.0029 c -2.026898,0.0025 -2.378927,0.06858 -2.48228,0.466063 -0.06619,0.254742 -0.125572,-0.132139 -0.131864,-0.859735 -0.0059,-0.727598 0.04886,-1.17415 0.122434,-0.992339 z m 0.104936,4.517638 c 0.419167,-0.720426 1.949775,-1.106766 3.007492,-0.759124 1.043071,0.342826 1.844451,1.713633 1.671555,2.859251 -0.1,0.662563 -0.111651,0.652015 -0.149166,-0.135048 -0.05943,-1.246952 -0.967743,-1.757007 -2.847241,-1.598825 -0.866651,0.07294 -1.57358,0.278424 -1.711972,0.49762 -0.198914,0.315077 -0.235168,0.311408 -0.232209,-0.02351 0.0017,-0.218284 0.11962,-0.596451 0.261541,-0.840369 z m 3.92793,-7.102269 c 0.27891,-3.41e-4 0.566988,-0.149522 0.640165,-0.331514 0.08285,-0.206178 0.141118,-0.164545 0.154475,0.110463 0.03724,0.768117 -0.281853,1.278757 -0.799603,1.279391 -0.32447,3.98e-4 -0.501088,-0.185745 -0.501508,-0.528553 -4.23e-4,-0.345108 0.175742,-0.529381 0.506471,-0.529787 z m 1.433464,-6.616345 c 0.19866,-2.43e-4 0.698654,-0.266553 1.111096,-0.591803 0.412452,-0.325247 0.654825,-0.437106 0.538626,-0.248571 -0.127377,0.206671 -0.02683,0.546071 0.253157,0.854714 0.453683,0.500084 0.432878,0.511965 -0.899501,0.513598 -0.750159,9.19e-4 -1.364065,-0.117392 -1.364243,-0.262912 -1.78e-4,-0.145521 0.162216,-0.264783 0.360865,-0.265026 z m 1.568395,9.306246 c 0.382646,0.05386 0.625883,0.296517 0.680692,0.679027 0.06949,0.484759 -0.04087,0.595363 -0.59458,0.596042 -0.5537,6.78e-4 -0.680014,-0.125326 -0.680693,-0.679027 -6.78e-4,-0.553704 0.109657,-0.664306 0.594581,-0.596042 z m 4.84306,-6.535975 c 0.54869,-2.334293 1.57362,-4.191416 3.229079,-5.850942 2.99398,-3.001326 7.38608,-4.23646 11.17541,-3.142717 3.17921,0.917644 5.42769,2.530419 7.04655,5.054294 1.5544,2.42336 2.11948,5.084814 1.86779,7.611209 -0.51404,5.159765 -4.43499,9.75618 -10.29301,10.610393 -1.22665,0.178868 -1.25734,0.206127 -1.2902,1.145415 l -0.0336,0.962189 -0.16473,-0.919199 c -0.15136,-0.844575 -0.25981,-0.935252 -1.33571,-1.116941 -1.61501,-0.272731 -3.77301,-0.99463 -4.27581,-1.430362 -0.22999,-0.199301 -0.5467,-0.362212 -0.70381,-0.362019 -0.51111,6.26e-4 -3.465609,-3.18598 -4.126529,-4.450713 -0.68883,-1.31815 -1.52455,-4.561161 -1.48978,-5.781103 0.0116,-0.407849 0.18911,-1.456127 0.3944,-2.329504 z m 0.66855,4.768598 c 1.09125,5.862914 6.914099,9.789753 12.844869,8.662379 3.32043,-0.631176 5.49905,-2.059377 7.35091,-4.818903 3.70036,-5.514028 1.5304,-13.201595 -4.57763,-16.2173 -1.67481,-0.826893 -1.91991,-0.872604 -4.67783,-0.872361 -2.74921,2.69e-4 -3.01295,0.04893 -4.76143,0.879087 -3.77531,1.792459 -6.317989,5.686492 -6.441219,9.864515 -0.0154,0.518997 0.10275,1.645157 0.26233,2.502583 z m 6.242119,0.671297 c 0.38902,-1.877875 2.68011,-3.731853 4.61463,-3.734224 1.75678,-0.0022 3.11553,-1.424011 3.12595,-3.271116 0.007,-1.100771 -0.10999,-1.392147 -0.81835,-2.052228 -0.45407,-0.423122 -1.10942,-0.840184 -1.45634,-0.926804 -0.48266,-0.120511 -0.631,-0.33714 -0.63171,-0.922559 -10e-4,-0.937235 0.43897,-0.983971 2.03102,-0.215679 3.46759,1.673387 3.44466,6.753508 -0.0382,8.444763 -0.59999,0.291363 -1.41524,0.530148 -1.81166,0.530633 -1.72757,0.0021 -3.61018,1.752461 -3.60499,3.351698 0.003,0.86709 1.01036,2.171655 2.10864,2.730262 0.81516,0.414607 1.06957,0.699873 1.07018,1.199986 0.001,0.827266 -0.66778,0.866353 -2.12676,0.124296 -1.81249,-0.921869 -2.88602,-3.214556 -2.46249,-5.259028 z"
         style="fill:#101010;stroke:#000000;stroke-width:1.065;stroke-dasharray:none;stroke-opacity:0.494118"
         id="path919"
         sodipodi:nodetypes="cssscssscccsscssccccssssscssccsscssssscsssssscsccsssssssscssccsssssscsssscssscsssssccsssssccccssscscccscsssssscssscc" />
      <path
         style="opacity:0.79;fill:#000000;fill-opacity:0.819608;fill-rule:evenodd;stroke-width:0.245931"
         id="path1040"
         sodipodi:type="arc"
         sodipodi:cx="109.77733"
         sodipodi:cy="51.275814"
         sodipodi:rx="5"
         sodipodi:ry="5"
         sodipodi:start="0.46461072"
         sodipodi:end="0.43267107"
         sodipodi:open="true"
         sodipodi:arc-type="arc"
         d="m 114.24731,53.516188 a 5,5 0 0 1 -6.67459,2.247353 5,5 0 0 1 -2.30058,-6.656434 5,5 0 0 1 6.63785,-2.353653 5,5 0 0 1 2.40658,6.618846" />
      <path
         style="opacity:0.79;fill:#000000;fill-opacity:0.819608;fill-rule:evenodd;stroke-width:0.245931"
         id="path1040-2"
         sodipodi:type="arc"
         sodipodi:cx="86.319443"
         sodipodi:cy="75.901039"
         sodipodi:rx="5"
         sodipodi:ry="5"
         sodipodi:start="0.46461072"
         sodipodi:end="0.43267107"
         sodipodi:open="true"
         sodipodi:arc-type="arc"
         d="m 90.789423,78.141413 a 5,5 0 0 1 -6.674591,2.247353 5,5 0 0 1 -2.300576,-6.656434 5,5 0 0 1 6.637851,-2.353653 5,5 0 0 1 2.406581,6.618846"
         inkscape:transform-center-x="-10.967066"
         inkscape:transform-center-y="34.976048" />
      <path
         style="opacity:0.79;fill:#000000;fill-opacity:0.819608;fill-rule:evenodd;stroke-width:0.245931"
         id="path1040-2-9"
         sodipodi:type="arc"
         sodipodi:cx="109.77733"
         sodipodi:cy="75.901039"
         sodipodi:rx="5"
         sodipodi:ry="5"
         sodipodi:start="0.46461072"
         sodipodi:end="0.43267107"
         sodipodi:open="true"
         sodipodi:arc-type="arc"
         d="m 114.24731,78.141413 a 5,5 0 0 1 -6.67459,2.247353 5,5 0 0 1 -2.30058,-6.656434 5,5 0 0 1 6.63785,-2.353653 5,5 0 0 1 2.40658,6.618846"
         inkscape:transform-center-x="-10.967066"
         inkscape:transform-center-y="34.976048" />
      <path
         style="opacity:0.79;fill:#000000;fill-opacity:0.819608;fill-rule:evenodd;stroke-width:0.245931"
         id="path1040-2-0"
         sodipodi:type="arc"
         sodipodi:cx="133.23521"
         sodipodi:cy="75.901039"
         sodipodi:rx="5"
         sodipodi:ry="5"
         sodipodi:start="0.46461072"
         sodipodi:end="0.43267107"
         sodipodi:open="true"
         sodipodi:arc-type="arc"
         d="m 137.70519,78.141413 a 5,5 0 0 1 -6.67459,2.247353 5,5 0 0 1 -2.30057,-6.656434 5,5 0 0 1 6.63785,-2.353653 5,5 0 0 1 2.40658,6.618846"
         inkscape:transform-center-x="-10.967066"
         inkscape:transform-center-y="34.976048" />
      <path
         style="opacity:0.79;fill:#000000;fill-opacity:0.819608;fill-rule:evenodd;stroke-width:0.245931"
         id="path1040-2-9-2"
         sodipodi:type="arc"
         sodipodi:cx="86.319443"
         sodipodi:cy="101.32697"
         sodipodi:rx="5"
         sodipodi:ry="5"
         sodipodi:start="0.46461072"
         sodipodi:end="0.43267107"
         sodipodi:open="true"
         sodipodi:arc-type="arc"
         d="m 90.789423,103.56735 a 5,5 0 0 1 -6.674591,2.24735 5,5 0 0 1 -2.300576,-6.656434 5,5 0 0 1 6.637851,-2.353653 5,5 0 0 1 2.406581,6.618847"
         inkscape:transform-center-x="-10.967066"
         inkscape:transform-center-y="34.976048" />
      <path
         style="opacity:0.79;fill:#000000;fill-opacity:0.819608;fill-rule:evenodd;stroke-width:0.245931"
         id="path1040-2-9-6"
         sodipodi:type="arc"
         sodipodi:cx="62.861557"
         sodipodi:cy="102.21619"
         sodipodi:rx="5"
         sodipodi:ry="5"
         sodipodi:start="0.46461072"
         sodipodi:end="0.43267107"
         sodipodi:open="true"
         sodipodi:arc-type="arc"
         d="m 67.331537,104.45656 a 5,5 0 0 1 -6.674591,2.24735 5,5 0 0 1 -2.300576,-6.65643 5,5 0 0 1 6.637851,-2.353654 5,5 0 0 1 2.406581,6.618844"
         inkscape:transform-center-x="-10.967066"
         inkscape:transform-center-y="34.976048" />
      <path
         style="opacity:0.79;fill:#a4ff00;fill-opacity:0.819608;fill-rule:evenodd;stroke:#000000;stroke-width:1.965;stroke-dasharray:none;stroke-opacity:0.494118"
         d="m 66.250005,97.263598 c 5.529198,-5.788095 11.0584,-11.576195 16.587609,-17.364301"
         id="path2174-3"
         inkscape:path-effect="#path-effect2176-7"
         inkscape:original-d="M 66.250005,97.263598 C 71.779474,91.475762 77.308674,85.68766 82.837614,79.899297" />
      <path
         style="opacity:0.79;fill:#000000;fill-opacity:0.819608;fill-rule:evenodd;stroke-width:0.245931"
         id="path1040-2-9-4"
         sodipodi:type="arc"
         sodipodi:cx="109.77733"
         sodipodi:cy="101.32697"
         sodipodi:rx="5"
         sodipodi:ry="5"
         sodipodi:start="0.46461072"
         sodipodi:end="0.43267107"
         sodipodi:open="true"
         sodipodi:arc-type="arc"
         d="m 114.24731,103.56735 a 5,5 0 0 1 -6.67459,2.24735 5,5 0 0 1 -2.30058,-6.656434 5,5 0 0 1 6.63785,-2.353653 5,5 0 0 1 2.40658,6.618847"
         inkscape:transform-center-x="-10.967066"
         inkscape:transform-center-y="34.976048" />
      <path
         style="opacity:0.79;fill:#000000;fill-opacity:0.819608;fill-rule:evenodd;stroke-width:0.245931"
         id="path1040-2-9-63"
         sodipodi:type="arc"
         sodipodi:cx="87.289322"
         sodipodi:cy="126.75289"
         sodipodi:rx="5"
         sodipodi:ry="5"
         sodipodi:start="0.46461072"
         sodipodi:end="0.43267107"
         sodipodi:open="true"
         sodipodi:arc-type="arc"
         d="m 91.759302,128.99327 a 5,5 0 0 1 -6.674591,2.24735 5,5 0 0 1 -2.300576,-6.65644 5,5 0 0 1 6.637851,-2.35365 5,5 0 0 1 2.406581,6.61885"
         inkscape:transform-center-x="-10.967066"
         inkscape:transform-center-y="34.976048" />
      <path
         style="opacity:0.79;fill:#000000;fill-opacity:0.819608;fill-rule:evenodd;stroke-width:0.245931"
         id="path1040-2-9-5"
         sodipodi:type="arc"
         sodipodi:cx="109.77733"
         sodipodi:cy="126.75289"
         sodipodi:rx="5"
         sodipodi:ry="5"
         sodipodi:start="0.46461072"
         sodipodi:end="0.43267107"
         sodipodi:open="true"
         sodipodi:arc-type="arc"
         d="m 114.24731,128.99327 a 5,5 0 0 1 -6.67459,2.24735 5,5 0 0 1 -2.30058,-6.65644 5,5 0 0 1 6.63785,-2.35365 5,5 0 0 1 2.40658,6.61885"
         inkscape:transform-center-x="-10.967066"
         inkscape:transform-center-y="34.976048" />
      <path
         style="opacity:0.79;fill:#000000;fill-opacity:0.819608;fill-rule:evenodd;stroke-width:0.245931"
         id="path1040-2-9-50"
         sodipodi:type="arc"
         sodipodi:cx="109.77733"
         sodipodi:cy="152.17882"
         sodipodi:rx="5"
         sodipodi:ry="5"
         sodipodi:start="0.46461072"
         sodipodi:end="0.43267107"
         sodipodi:open="true"
         sodipodi:arc-type="arc"
         d="m 114.24731,154.41919 a 5,5 0 0 1 -6.67459,2.24735 5,5 0 0 1 -2.30058,-6.65643 5,5 0 0 1 6.63785,-2.35365 5,5 0 0 1 2.40658,6.61884"
         inkscape:transform-center-x="-10.967066"
         inkscape:transform-center-y="34.976048" />
      <path
         style="opacity:0.79;fill:#a4ff00;fill-opacity:0.819608;fill-rule:evenodd;stroke:#000000;stroke-width:1.965;stroke-dasharray:none;stroke-opacity:0.494118"
         d="m 89.652912,72.174379 c 5.529197,-5.788094 11.058398,-11.576194 16.587608,-17.3643"
         id="path2174"
         inkscape:path-effect="#path-effect2176"
         inkscape:original-d="m 89.652912,72.174379 c 5.529469,-5.787835 11.058668,-11.575937 16.587608,-17.3643" />
      <path
         style="opacity:0.79;fill:#a4ff00;fill-opacity:0.819608;fill-rule:evenodd;stroke:#000000;stroke-width:1.965;stroke-dasharray:none;stroke-opacity:0.494118"
         d="m 129.65669,72.174379 c -5.5292,-5.788095 -11.0584,-11.576194 -16.58761,-17.3643"
         id="path2174-1"
         inkscape:path-effect="#path-effect2176-5"
         inkscape:original-d="m 129.65669,72.174379 c -5.52947,-5.787835 -11.05867,-11.575937 -16.58761,-17.3643" />
      <path
         style="opacity:0.79;fill:#a4ff00;fill-opacity:0.819608;fill-rule:evenodd;stroke:#000000;stroke-width:1.965;stroke-dasharray:none;stroke-opacity:0.494118"
         d="m 89.754579,122.35282 c 5.529197,-5.78809 11.058401,-11.57619 16.587611,-17.3643"
         id="path2174-8-7"
         inkscape:path-effect="#path-effect2176-0-2"
         inkscape:original-d="m 89.754579,122.35282 c 5.529473,-5.78783 11.058671,-11.57593 16.587611,-17.3643" />
      <path
         style="opacity:0.79;fill:#a4ff00;fill-opacity:0.819608;fill-rule:evenodd;stroke:#000000;stroke-width:1.965;stroke-dasharray:none;stroke-opacity:0.494118"
         d="M 106.34219,97.263597 C 100.81299,91.475502 95.283789,85.687403 89.75458,79.899297"
         id="path2174-1-3"
         inkscape:path-effect="#path-effect2176-5-8"
         inkscape:original-d="M 106.34219,97.263597 C 100.81272,91.475762 95.28352,85.68766 89.75458,79.899297" />
      <path
         style="opacity:0.79;fill:#a4ff00;fill-opacity:0.819608;fill-rule:evenodd;stroke:#000000;stroke-width:1.965;stroke-dasharray:none;stroke-opacity:0.494118"
         d="m 109.77733,56.275815 c 0,4.875337 0,9.750412 0,14.625219"
         id="path2360"
         inkscape:path-effect="#path-effect2362"
         inkscape:original-d="m 109.77733,56.275815 c 2.6e-4,4.875337 2.6e-4,9.750412 0,14.625219"
         sodipodi:nodetypes="cc" />
      <path
         style="opacity:0.79;fill:#a4ff00;fill-opacity:0.819608;fill-rule:evenodd;stroke:#000000;stroke-width:1.965;stroke-dasharray:none;stroke-opacity:0.494118"
         d="m 86.296097,81.30139 c 0,4.875337 0,9.750412 0,14.625219"
         id="path2360-4"
         inkscape:path-effect="#path-effect2362-7"
         inkscape:original-d="m 86.296097,81.30139 c 2.6e-4,4.875337 2.6e-4,9.750412 0,14.625219" />
      <path
         style="opacity:0.79;fill:#a4ff00;fill-opacity:0.819608;fill-rule:evenodd;stroke:#000000;stroke-width:1.965;stroke-dasharray:none;stroke-opacity:0.494118"
         d="m 109.77733,106.72732 c 0,4.87534 0,9.75041 0,14.62522"
         id="path2360-0"
         inkscape:path-effect="#path-effect2362-9"
         inkscape:original-d="m 109.77733,106.72732 c 2.6e-4,4.87534 2.6e-4,9.75041 0,14.62522" />
      <path
         style="opacity:0.79;fill:#a4ff00;fill-opacity:0.819608;fill-rule:evenodd;stroke:#000000;stroke-width:1.965;stroke-dasharray:none;stroke-opacity:0.494118"
         d="m 109.77733,131.7529 c 0,4.87534 0,9.75041 0,14.62522"
         id="path2360-1"
         inkscape:path-effect="#path-effect2362-4"
         inkscape:original-d="m 109.77733,131.7529 c 2.6e-4,4.87534 2.6e-4,9.75041 0,14.62522" />
      <text
         xml:space="preserve"
         style="font-style:normal;font-variant:normal;font-weight:normal;font-stretch:normal;font-size:9.87778px;font-family:'Times New Roman';-inkscape-font-specification:'Times New Roman, Normal';font-variant-ligatures:normal;font-variant-caps:normal;font-variant-numeric:normal;font-variant-east-asian:normal;opacity:0.79;fill:#000000;fill-opacity:1;fill-rule:evenodd;stroke:#000000;stroke-width:0.294492;stroke-linecap:round;stroke-linejoin:round;stroke-dasharray:none;stroke-opacity:1"
         x="114.87901"
         y="-14.490765"
         id="text4159"
         transform="matrix(0.47194322,0.89898755,-0.87203384,0.45779328,0,0)"><tspan
           sodipodi:role="line"
           id="tspan4157"
           style="font-style:normal;font-variant:normal;font-weight:normal;font-stretch:normal;font-size:9.87778px;font-family:'Times New Roman';-inkscape-font-specification:'Times New Roman, Normal';font-variant-ligatures:normal;font-variant-caps:normal;font-variant-numeric:normal;font-variant-east-asian:normal;stroke-width:0.294492"
           x="114.87901"
           y="-14.490765">4</tspan></text>
      <text
         xml:space="preserve"
         style="font-style:normal;font-variant:normal;font-weight:normal;font-stretch:normal;font-size:9.87778px;font-family:'Times New Roman';-inkscape-font-specification:'Times New Roman, Normal';font-variant-ligatures:normal;font-variant-caps:normal;font-variant-numeric:normal;font-variant-east-asian:normal;opacity:0.83;fill:#000000;fill-opacity:1;fill-rule:evenodd;stroke:#000000;stroke-width:0.4;stroke-linecap:round;stroke-linejoin:round;stroke-dasharray:none;stroke-opacity:1"
         x="94.930969"
         y="-80.543777"
         id="text3202"
         transform="rotate(62.301788)"><tspan
           sodipodi:role="line"
           id="tspan3200"
           style="font-style:normal;font-variant:normal;font-weight:normal;font-stretch:normal;font-size:9.87778px;font-family:'Times New Roman';-inkscape-font-specification:'Times New Roman, Normal';font-variant-ligatures:normal;font-variant-caps:normal;font-variant-numeric:normal;font-variant-east-asian:normal;fill:#000000;fill-opacity:1;stroke:#000000;stroke-width:0.4;stroke-linecap:round;stroke-linejoin:round;stroke-dasharray:none;stroke-opacity:1"
           x="94.930969"
           y="-80.543777">1</tspan></text>
      <text
         xml:space="preserve"
         style="font-style:normal;font-variant:normal;font-weight:normal;font-stretch:normal;font-size:9.87778px;font-family:'Times New Roman';-inkscape-font-specification:'Times New Roman, Normal';font-variant-ligatures:normal;font-variant-caps:normal;font-variant-numeric:normal;font-variant-east-asian:normal;opacity:0.79;fill:#000000;fill-opacity:1;fill-rule:evenodd;stroke:#000000;stroke-width:0.4;stroke-linecap:round;stroke-linejoin:round;stroke-dasharray:none;stroke-opacity:1"
         x="105.25022"
         y="-47.907589"
         id="text3202-9"
         transform="rotate(62.301788)"><tspan
           sodipodi:role="line"
           id="tspan3200-9"
           style="font-style:normal;font-variant:normal;font-weight:normal;font-stretch:normal;font-size:9.87778px;font-family:'Times New Roman';-inkscape-font-specification:'Times New Roman, Normal';font-variant-ligatures:normal;font-variant-caps:normal;font-variant-numeric:normal;font-variant-east-asian:normal;fill:#000000;fill-opacity:1;stroke:#000000;stroke-width:0.4;stroke-linecap:round;stroke-linejoin:round;stroke-dasharray:none;stroke-opacity:1"
           x="105.25022"
           y="-47.907589">2</tspan></text>
      <text
         xml:space="preserve"
         style="font-style:normal;font-variant:normal;font-weight:normal;font-stretch:normal;font-size:9.87778px;font-family:'Times New Roman';-inkscape-font-specification:'Times New Roman, Normal';font-variant-ligatures:normal;font-variant-caps:normal;font-variant-numeric:normal;font-variant-east-asian:normal;opacity:0.79;fill:#000000;fill-opacity:1;fill-rule:evenodd;stroke:#000000;stroke-width:0.28841;stroke-linecap:round;stroke-linejoin:round;stroke-dasharray:none;stroke-opacity:1"
         x="119.6558"
         y="-66.745148"
         id="text4155"
         transform="matrix(0.45017402,0.8575202,-0.91420304,0.47993092,0,0)"><tspan
           sodipodi:role="line"
           id="tspan4153"
           style="font-style:normal;font-variant:normal;font-weight:normal;font-stretch:normal;font-size:9.87778px;font-family:'Times New Roman';-inkscape-font-specification:'Times New Roman, Normal';font-variant-ligatures:normal;font-variant-caps:normal;font-variant-numeric:normal;font-variant-east-asian:normal;stroke-width:0.28841"
           x="119.6558"
           y="-66.745148">3</tspan></text>
      <text
         xml:space="preserve"
         style="font-style:normal;font-variant:normal;font-weight:normal;font-stretch:normal;font-size:9.87777px;font-family:'Times New Roman';-inkscape-font-specification:'Times New Roman, Normal';font-variant-ligatures:normal;font-variant-caps:normal;font-variant-numeric:normal;font-variant-east-asian:normal;opacity:0.79;fill:#000000;fill-opacity:1;fill-rule:evenodd;stroke:#000000;stroke-width:0.4;stroke-linecap:round;stroke-linejoin:round;stroke-dasharray:none;stroke-opacity:1"
         x="121.00376"
         y="-89.464203"
         id="text4163"
         transform="rotate(62.301788)"><tspan
           sodipodi:role="line"
           id="tspan4161"
           style="stroke-width:0.4"
           x="121.00376"
           y="-89.464203">10</tspan><tspan
           sodipodi:role="line"
           style="stroke-width:0.4"
           x="121.00376"
           y="-77.116989"
           id="tspan4165" /></text>
      <text
         xml:space="preserve"
         style="font-style:normal;font-variant:normal;font-weight:normal;font-stretch:normal;font-size:9.87777px;font-family:'Times New Roman';-inkscape-font-specification:'Times New Roman, Normal';font-variant-ligatures:normal;font-variant-caps:normal;font-variant-numeric:normal;font-variant-east-asian:normal;opacity:0.79;fill:#000000;fill-opacity:1;fill-rule:evenodd;stroke:#000000;stroke-width:0.4;stroke-linecap:round;stroke-linejoin:round;stroke-dasharray:none;stroke-opacity:1"
         x="125.1729"
         y="-37.434418"
         id="text4173"
         transform="rotate(62.301788)"><tspan
           sodipodi:role="line"
           id="tspan4171"
           style="stroke-width:0.4"
           x="125.1729"
           y="-37.434418">5</tspan></text>
      <text
         xml:space="preserve"
         style="font-style:normal;font-variant:normal;font-weight:normal;font-stretch:normal;font-size:9.87777px;font-family:'Times New Roman';-inkscape-font-specification:'Times New Roman, Normal';font-variant-ligatures:normal;font-variant-caps:normal;font-variant-numeric:normal;font-variant-east-asian:normal;opacity:0.79;fill:#000000;fill-opacity:1;fill-rule:evenodd;stroke:#000000;stroke-width:0.4;stroke-linecap:round;stroke-linejoin:round;stroke-dasharray:none;stroke-opacity:1"
         x="135.96703"
         y="-59.247768"
         id="text4177"
         transform="rotate(62.301788)"><tspan
           sodipodi:role="line"
           id="tspan4175"
           style="stroke-width:0.4"
           x="135.96703"
           y="-59.247768">6</tspan></text>
      <text
         xml:space="preserve"
         style="font-style:normal;font-variant:normal;font-weight:normal;font-stretch:normal;font-size:9.87777px;font-family:'Times New Roman';-inkscape-font-specification:'Times New Roman, Normal';font-variant-ligatures:normal;font-variant-caps:normal;font-variant-numeric:normal;font-variant-east-asian:normal;opacity:0.79;fill:#000000;fill-opacity:1;fill-rule:evenodd;stroke:#000000;stroke-width:0.4;stroke-linecap:round;stroke-linejoin:round;stroke-dasharray:none;stroke-opacity:1"
         x="149.63008"
         y="-24.450361"
         id="text4181"
         transform="rotate(62.301788)"><tspan
           sodipodi:role="line"
           id="tspan4179"
           style="stroke-width:0.4"
           x="149.63008"
           y="-24.450361">7</tspan></text>
      <text
         xml:space="preserve"
         style="font-style:normal;font-variant:normal;font-weight:normal;font-stretch:normal;font-size:9.87777px;font-family:'Times New Roman';-inkscape-font-specification:'Times New Roman, Normal';font-variant-ligatures:normal;font-variant-caps:normal;font-variant-numeric:normal;font-variant-east-asian:normal;opacity:0.79;fill:#000000;fill-opacity:1;fill-rule:evenodd;stroke:#000000;stroke-width:0.4;stroke-linecap:round;stroke-linejoin:round;stroke-dasharray:none;stroke-opacity:1"
         x="160.1698"
         y="-45.390015"
         id="text4185"
         transform="rotate(62.301788)"><tspan
           sodipodi:role="line"
           id="tspan4183"
           style="stroke-width:0.4"
           x="160.1698"
           y="-45.390015">8</tspan></text>
      <text
         xml:space="preserve"
         style="font-style:normal;font-variant:normal;font-weight:normal;font-stretch:normal;font-size:9.87777px;font-family:'Times New Roman';-inkscape-font-specification:'Times New Roman, Normal';font-variant-ligatures:normal;font-variant-caps:normal;font-variant-numeric:normal;font-variant-east-asian:normal;opacity:0.79;fill:#000000;fill-opacity:1;fill-rule:evenodd;stroke:#000000;stroke-width:0.4;stroke-linecap:round;stroke-linejoin:round;stroke-dasharray:none;stroke-opacity:1"
         x="183.44217"
         y="-34.109692"
         id="text4189"
         transform="rotate(62.301788)"><tspan
           sodipodi:role="line"
           id="tspan4187"
           style="stroke-width:0.4"
           x="183.44217"
           y="-34.109692">9</tspan></text>
      <ellipse
         style="display:inline;fill:none;fill-opacity:1;stroke:#007bff;stroke-width:3.4371;stroke-linecap:round;stroke-dasharray:none;stroke-dashoffset:0;stroke-opacity:0.580392"
         id="path1-1-9"
         cx="86.247894"
         cy="101.32697"
         rx="7.2814503"
         ry="7.2814507" />
      <rect
         style="display:inline;opacity:0.79;mix-blend-mode:darken;fill:#ff3b30;fill-opacity:0.82;stroke:#ff5733;stroke-width:3.33999;stroke-linecap:round;stroke-dasharray:none;stroke-opacity:0.61"
         id="rect1-9"
         width="16.660007"
         height="16.660011"
         x="124.90521"
         y="67.57103" />
      <rect
         style="display:inline;opacity:0.79;mix-blend-mode:darken;fill:#ff3b30;fill-opacity:0.82;stroke:#ff5733;stroke-width:3.33999;stroke-linecap:round;stroke-dasharray:none;stroke-opacity:0.61"
         id="rect1-9-6"
         width="16.660009"
         height="16.660013"
         x="101.31767"
         y="93.037834" />
      <ellipse
         style="display:inline;fill:none;fill-opacity:1;stroke:#007bff;stroke-width:3.4371;stroke-linecap:round;stroke-dasharray:none;stroke-dashoffset:0;stroke-opacity:0.580392"
         id="path1-1"
         cx="109.77733"
         cy="101.32697"
         rx="7.2814503"
         ry="7.2814507" />
    </g>
    <text
       xml:space="preserve"
       transform="matrix(1.0583333,0,0,1.0583333,1695.6872,-526.30902)"
       id="text40841-3"
       style="font-style:normal;font-variant:normal;font-weight:normal;font-stretch:normal;font-size:13.3333px;font-family:'Times New Roman';-inkscape-font-specification:'Times New Roman, Normal';font-variant-ligatures:normal;font-variant-caps:normal;font-variant-numeric:normal;font-variant-east-asian:normal;white-space:pre;shape-inside:url(#rect40843-7);display:inline;fill:#c51919;fill-opacity:1;fill-rule:evenodd;stroke:none;stroke-width:0.755906;stroke-miterlimit:5.2;stroke-opacity:1"><tspan
         x="-1563.002"
         y="535.78023"
         id="tspan6982"><tspan
           style="fill:#000000"
           id="tspan6980">Battery</tspan></tspan></text>
    <text
       xml:space="preserve"
       transform="matrix(1.0583333,0,0,1.0583333,1695.6073,-509.99492)"
       id="text40841-3-8"
       style="font-style:normal;font-variant:normal;font-weight:normal;font-stretch:normal;font-size:13.3333px;font-family:'Times New Roman';-inkscape-font-specification:'Times New Roman, Normal';font-variant-ligatures:normal;font-variant-caps:normal;font-variant-numeric:normal;font-variant-east-asian:normal;white-space:pre;shape-inside:url(#rect40843-7-1);display:inline;fill:#c51919;fill-opacity:1;fill-rule:evenodd;stroke:none;stroke-width:0.755906;stroke-miterlimit:5.2;stroke-opacity:1"><tspan
         x="-1563.002"
         y="535.78023"
         id="tspan6986"><tspan
           style="fill:#000000"
           id="tspan6984">PV</tspan></tspan></text>
    <rect
       style="display:inline;opacity:0.79;mix-blend-mode:darken;fill:#ff3b30;fill-opacity:0.82;stroke:#ff5733;stroke-width:2;stroke-linecap:round;stroke-dasharray:none;stroke-opacity:0.61"
       id="rect1"
       width="10.121714"
       height="9.8325224"
       x="25.226221"
       y="48.878426" />
    <ellipse
       style="display:inline;fill:none;fill-opacity:1;stroke:#007bff;stroke-width:2.9;stroke-linecap:round;stroke-dasharray:none;stroke-dashoffset:0;stroke-opacity:0.580392"
       id="path1-8-0"
       cx="30.039042"
       cy="37.576244"
       rx="6.2899222"
       ry="6.0007305" />
  </g>
</svg>
